Coordinates
version=1
nRows=60
nColumns=12
inDegrees=yes

Units are S.I. units (second, meters, Newtons, ...)
Angles are in degrees

endheader
time	SC_y	SC_z	SC_x	AC_y	AC_z	AC_x	GH_y	GH_z	GH_yy	EL_x	PS_y
       0.0              -43.16           17.5          46.22          51.03          4.953          6.749          74.38          48.21         -103.5          132.1          62.03
   0.01896              -43.16           17.5          46.23          51.03           4.95          6.746          74.39          48.21         -103.5          132.0          62.04
   0.03792              -43.15           17.5          46.23          51.03          4.946          6.743          74.39          48.21         -103.5          132.0          62.06
   0.05687              -43.15          17.51          46.23          51.03          4.943           6.74          74.39          48.21         -103.5          132.0          62.07
   0.07583              -43.15          17.51          46.23          51.03           4.94          6.737           74.4          48.21         -103.5          132.0          62.08
   0.09479              -43.15          17.51          46.24          51.03          4.936          6.733           74.4          48.21         -103.5          132.0           62.1
    0.1137              -43.15          17.51          46.24          51.03          4.932          6.729          74.41          48.21         -103.6          132.0          62.12
    0.1327              -43.15          17.51          46.25          51.03          4.927          6.725          74.41          48.21         -103.6          132.0          62.13
    0.1517              -43.15          17.51          46.25          51.03          4.923           6.72          74.42          48.21         -103.6          131.9          62.15
    0.1706              -43.15          17.51          46.26          51.03          4.918          6.715          74.42          48.21         -103.6          131.9          62.17
    0.1896              -43.14          17.51          46.26          51.03          4.912           6.71          74.43          48.21         -103.6          131.9           62.2
    0.2085              -43.14          17.51          46.27          51.03          4.906          6.704          74.44          48.22         -103.6          131.9          62.22
    0.2275              -43.14          17.51          46.27          51.03            4.9          6.698          74.44          48.22         -103.7          131.9          62.25
    0.2465              -43.14          17.51          46.28          51.03          4.894          6.692          74.45          48.22         -103.7          131.8          62.27
    0.2654              -43.14          17.51          46.28          51.04          4.886          6.685          74.46          48.22         -103.7          131.8           62.3
    0.2844              -43.13          17.51          46.29          51.04          4.878          6.677          74.47          48.22         -103.7          131.8          62.34
    0.3033              -43.13          17.51           46.3          51.04           4.87          6.668          74.48          48.22         -103.8          131.8          62.37
    0.3223              -43.13          17.52          46.31          51.04           4.86          6.659          74.49          48.22         -103.8          131.7          62.41
    0.3412              -43.12          17.52          46.32          51.04           4.85          6.649           74.5          48.22         -103.8          131.7          62.45
    0.3602              -43.12          17.52          46.33          51.04          4.839          6.638          74.51          48.23         -103.9          131.6           62.5
    0.3792              -43.12          17.52          46.34          51.05          4.827          6.626          74.53          48.23         -103.9          131.6          62.55
    0.3981              -43.11          17.52          46.35          51.05          4.813          6.613          74.54          48.23         -104.0          131.6           62.6
    0.4171              -43.11          17.52          46.37          51.05          4.798          6.599          74.56          48.23         -104.0          131.5          62.67
     0.436               -43.1          17.53          46.38          51.05          4.782          6.583          74.58          48.23         -104.1          131.4          62.73
     0.455               -43.1          17.53           46.4          51.06          4.763          6.565           74.6          48.24         -104.1          131.4          62.81
     0.474              -43.09          17.53          46.42          51.06          4.743          6.545          74.62          48.24         -104.2          131.3           62.9
    0.4929              -43.08          17.53          46.44          51.06           4.72          6.522          74.65          48.24         -104.3          131.2          62.99
    0.5119              -43.08          17.54          46.46          51.07          4.694          6.497          74.68          48.25         -104.3          131.1           63.1
    0.5308              -43.07          17.54          46.49          51.07          4.665          6.468          74.71          48.25         -104.4          131.0          63.22
    0.5498              -43.06          17.54          46.52          51.08          4.632          6.436          74.75          48.26         -104.6          130.9          63.35
    0.5687              -43.05          17.55          46.55          51.08          4.594          6.399          74.79          48.26         -104.7          130.8          63.51
    0.5877              -43.03          17.55          46.59          51.09           4.55          6.357          74.84          48.27         -104.8          130.6          63.69
    0.6067              -43.02          17.56          46.64           51.1            4.5          6.308           74.9          48.28         -105.0          130.4           63.9
    0.6256               -43.0          17.57          46.69          51.11          4.442          6.251          74.96          48.29         -105.2          130.2          64.14
    0.6446              -42.98          17.58          46.76          51.12          4.374          6.184          75.04           48.3         -105.4          130.0          64.42
    0.6635              -42.95          17.59          46.83          51.13          4.293          6.106          75.13          48.31         -105.7          129.7          64.75
    0.6825              -42.92           17.6          46.92          51.14          4.198          6.012          75.24          48.33         -106.0          129.3          65.14
    0.7014              -42.89          17.61          47.03          51.16          4.083          5.901          75.37          48.34         -106.4          128.9          65.62
    0.7204              -42.85          17.63          47.15          51.18          3.945          5.765          75.53          48.36         -106.8          128.4          66.19
    0.7394              -42.79          17.65          47.31          51.21          3.776            5.6          75.72          48.39         -107.4          127.8          66.88
    0.7583              -42.73          17.68           47.5          51.24          3.567          5.396          75.96          48.42         -108.1          127.0          67.75
    0.7773              -42.65          17.71          47.74          51.28          3.306          5.142          76.25          48.46         -108.9          126.1          68.82
    0.7962              -42.55          17.75          48.05          51.33          2.978          4.822          76.62          48.51         -110.0          124.9          70.17
    0.8152              -42.42           17.8          48.43           51.4          2.561          4.414           77.1          48.58         -111.4          123.4          71.89
    0.8342              -42.26          17.87          48.92          51.48          2.028          3.893           77.7          48.66         -113.2          121.4          74.09
    0.8531              -42.05          17.95          49.56          51.59          1.343          3.224          78.48          48.77         -115.5          119.0          76.92
    0.8721              -41.78          18.06          50.36          51.73         0.4676           2.37          79.47           48.9         -118.4          115.8          80.53
     0.891              -41.44          18.19          51.38           51.9        -0.6326          1.296          80.72          49.07         -122.0          111.8          85.07
      0.91              -41.02          18.36          52.62          52.11         -1.973       -0.01365          82.24          49.28         -126.4          106.9           90.6
    0.9289              -40.55          18.55          54.05          52.35         -3.527         -1.531           84.0          49.52         -131.6          101.3          97.01
    0.9479              -40.03          18.76          55.61          52.61          -5.21         -3.174          85.91          49.78         -137.2          95.17          103.9
    0.9669              -39.51          18.97          57.16          52.88         -6.893         -4.817          87.82          50.05         -142.7          89.07          110.9
    0.9858              -39.03          19.16           58.6          53.12         -8.447         -6.335          89.58          50.29         -147.9          83.43          117.3
     1.005              -38.62          19.33          59.83          53.33         -9.788         -7.644          91.11           50.5         -152.3          78.56          122.8
     1.024              -38.28          19.46          60.85           53.5         -10.89         -8.718          92.35          50.67         -156.0          74.57          127.4
     1.043              -38.01          19.57          61.66          53.64         -11.76         -9.573          93.35           50.8         -158.9          71.39          131.0
     1.062               -37.8          19.65          62.29          53.74         -12.45         -10.24          94.12          50.91         -161.1          68.91          133.8
     1.081              -37.64          19.72          62.78          53.83         -12.98         -10.76          94.73          50.99         -162.9          66.97          136.0
       1.1              -37.51          19.77          63.17          53.89          -13.4         -11.17           95.2          51.06         -164.3          65.46          137.7
     1.119              -37.41          19.81          63.47          53.94         -13.73         -11.49          95.57          51.11         -165.4          64.26          139.1
